<svg xmlns="http://www.w3.org/2000/svg" width="1413.053" height="1837.644" viewBox="0 0 1413.053 1837.644">
  <g id="trash" transform="translate(-2.235)">
    <g id="Group_54" data-name="Group 54" transform="translate(2.235)">
      <path id="Path_32" data-name="Path 32" d="M2.833,147.571S51.572,194.22,51.572,221.3v1194.06c0,79.047,69.926,143.177,156.288,143.177h889.464c86.267,0,156.193-64.13,156.193-143.177V221.392c0-27.172,48.929-73.726,48.929-73.726V2.969H2.833ZM907.974,312.79h116.195v922.052H907.974Zm-311.056,0h115.91v922.052H596.918Zm-280.178,0h116v922.052h-116Z" transform="translate(53.982 279.11)" fill="#fff"/>
      <path id="Path_33" data-name="Path 33" d="M1415.288,162.559H1055.113C1037.156,70.306,949.084,0,843.245,0H574.373C468.534,0,380.462,70.306,362.505,162.559H2.235v88.357H1415.288Zm-932.123,0c14.821-32.683,50.164-55.675,91.208-55.675H843.15c41.138,0,76.386,23.087,91.3,55.675Z" transform="translate(-2.235)" fill="#fff"/>
    </g>
  </g>
</svg>
